<mxfile host="www.draw.io" modified="2019-10-21T04:09:12.626Z" agent="Mozilla/5.0 (Windows NT 10.0; Win64; x64) AppleWebKit/537.36 (KHTML, like Gecko) Chrome/77.0.3865.120 Safari/537.36" etag="fhLcP8NQYDd6LwBDpK5L" version="12.1.3" type="github" pages="1">
  <diagram id="VOGU1n00awtJ55gnDfI6" name="Page-1">
    <mxGraphModel dx="818" dy="520" grid="1" gridSize="10" guides="1" tooltips="1" connect="1" arrows="1" fold="1" page="1" pageScale="1" pageWidth="827" pageHeight="1169" math="0" shadow="0">
      <root>
        <mxCell id="0"/>
        <mxCell id="1" parent="0"/>
        <mxCell id="lj-SIOatGXmswrZ_GrTb-2" value="" style="rounded=0;whiteSpace=wrap;html=1;" vertex="1" parent="1">
          <mxGeometry x="20" y="20" width="120" height="30" as="geometry"/>
        </mxCell>
        <mxCell id="lj-SIOatGXmswrZ_GrTb-6" value="" style="rounded=0;whiteSpace=wrap;html=1;" vertex="1" parent="1">
          <mxGeometry x="20" y="50" width="120" height="150" as="geometry"/>
        </mxCell>
        <mxCell id="lj-SIOatGXmswrZ_GrTb-7" value="" style="rounded=0;whiteSpace=wrap;html=1;" vertex="1" parent="1">
          <mxGeometry x="310" y="20" width="140" height="40" as="geometry"/>
        </mxCell>
        <mxCell id="lj-SIOatGXmswrZ_GrTb-9" value="" style="rounded=0;whiteSpace=wrap;html=1;" vertex="1" parent="1">
          <mxGeometry x="280" y="60" width="200" height="140" as="geometry"/>
        </mxCell>
        <mxCell id="lj-SIOatGXmswrZ_GrTb-10" value="User" style="text;html=1;strokeColor=none;fillColor=none;align=center;verticalAlign=middle;whiteSpace=wrap;rounded=0;" vertex="1" parent="1">
          <mxGeometry x="40" y="25" width="80" height="20" as="geometry"/>
        </mxCell>
        <mxCell id="lj-SIOatGXmswrZ_GrTb-11" value="DataBase" style="text;html=1;strokeColor=none;fillColor=none;align=center;verticalAlign=middle;whiteSpace=wrap;rounded=0;" vertex="1" parent="1">
          <mxGeometry x="340" y="30" width="90" height="20" as="geometry"/>
        </mxCell>
        <mxCell id="lj-SIOatGXmswrZ_GrTb-12" value="" style="rounded=0;whiteSpace=wrap;html=1;" vertex="1" parent="1">
          <mxGeometry x="640" y="20" width="120" height="40" as="geometry"/>
        </mxCell>
        <mxCell id="lj-SIOatGXmswrZ_GrTb-13" value="Room" style="text;html=1;strokeColor=none;fillColor=none;align=center;verticalAlign=middle;whiteSpace=wrap;rounded=0;" vertex="1" parent="1">
          <mxGeometry x="645" y="30" width="110" height="20" as="geometry"/>
        </mxCell>
        <mxCell id="lj-SIOatGXmswrZ_GrTb-14" value="" style="rounded=0;whiteSpace=wrap;html=1;" vertex="1" parent="1">
          <mxGeometry x="600" y="60" width="200" height="140" as="geometry"/>
        </mxCell>
        <mxCell id="lj-SIOatGXmswrZ_GrTb-15" value="" style="endArrow=classic;html=1;" edge="1" parent="1">
          <mxGeometry width="50" height="50" relative="1" as="geometry">
            <mxPoint x="140" y="80" as="sourcePoint"/>
            <mxPoint x="270" y="80" as="targetPoint"/>
          </mxGeometry>
        </mxCell>
        <mxCell id="lj-SIOatGXmswrZ_GrTb-16" value="" style="endArrow=classic;html=1;exitX=0;exitY=0.714;exitDx=0;exitDy=0;exitPerimeter=0;" edge="1" parent="1" source="lj-SIOatGXmswrZ_GrTb-9">
          <mxGeometry width="50" height="50" relative="1" as="geometry">
            <mxPoint x="20" y="270" as="sourcePoint"/>
            <mxPoint x="150" y="160" as="targetPoint"/>
          </mxGeometry>
        </mxCell>
        <mxCell id="lj-SIOatGXmswrZ_GrTb-17" value="1" style="text;html=1;strokeColor=none;fillColor=none;align=center;verticalAlign=middle;whiteSpace=wrap;rounded=0;" vertex="1" parent="1">
          <mxGeometry x="140" y="50" width="40" height="20" as="geometry"/>
        </mxCell>
        <mxCell id="lj-SIOatGXmswrZ_GrTb-18" value="1" style="text;html=1;strokeColor=none;fillColor=none;align=center;verticalAlign=middle;whiteSpace=wrap;rounded=0;" vertex="1" parent="1">
          <mxGeometry x="240" y="50" width="40" height="20" as="geometry"/>
        </mxCell>
        <mxCell id="lj-SIOatGXmswrZ_GrTb-19" value="" style="endArrow=classic;html=1;entryX=0.006;entryY=0.15;entryDx=0;entryDy=0;entryPerimeter=0;" edge="1" parent="1" target="lj-SIOatGXmswrZ_GrTb-14">
          <mxGeometry width="50" height="50" relative="1" as="geometry">
            <mxPoint x="483" y="80" as="sourcePoint"/>
            <mxPoint x="530" y="60" as="targetPoint"/>
          </mxGeometry>
        </mxCell>
        <mxCell id="lj-SIOatGXmswrZ_GrTb-20" value="1" style="text;html=1;strokeColor=none;fillColor=none;align=center;verticalAlign=middle;whiteSpace=wrap;rounded=0;" vertex="1" parent="1">
          <mxGeometry x="480" y="50" width="40" height="20" as="geometry"/>
        </mxCell>
        <mxCell id="lj-SIOatGXmswrZ_GrTb-21" value="1" style="text;html=1;strokeColor=none;fillColor=none;align=center;verticalAlign=middle;whiteSpace=wrap;rounded=0;" vertex="1" parent="1">
          <mxGeometry x="560" y="50" width="40" height="20" as="geometry"/>
        </mxCell>
      </root>
    </mxGraphModel>
  </diagram>
</mxfile>
